<!-- Generated by IcoMoon.io -->
<svg version="1.1" xmlns="http://www.w3.org/2000/svg" width="24" height="24" viewBox="0 0 24 24">
  <title>Old-Navy-logo</title>
  <path fill="#003764"
        d="M11.859 8.753c-6.494 0-11.753 1.694-11.753 3.812s5.259 3.812 11.753 3.812c6.494 0 11.753-1.694 11.753-3.812s-5.259-3.812-11.753-3.812z"></path>
  <path fill="#fff"
        d="M14.259 11.188l-0.741 2.788h0.635l0.141-0.529h0.882l0.141 0.529h0.635l-0.741-2.788h-0.953zM14.435 12.918l0.318-1.165 0.318 1.165h-0.635z"></path>
  <path fill="#fff" d="M17.4 13.941l0.706-2.753h-0.706l-0.424 1.906-0.424-1.906h-0.706l0.706 2.753z"></path>
  <path fill="#fff" d="M12.529 12.776l-0.882-1.588h-0.635v2.753h0.635v-1.588l0.882 1.588h0.635v-2.753h-0.635z"></path>
  <path fill="#fff" d="M19.835 13.941v-0.882l0.847-1.871h-0.706l-0.494 1.2-0.459-1.2h-0.706l0.812 1.871v0.882z"></path>
  <path fill="#fff"
        d="M8.647 13.941c0.353 0 0.635 0 0.882-0.318 0.247-0.282 0.353-0.671 0.353-1.059v0 0c0 0 0 0 0 0s0 0 0 0v0c0-0.388-0.106-0.776-0.353-1.059s-0.529-0.282-0.882-0.282h-0.882v2.788h0.882zM8.435 11.718h0.141c0.176 0 0.353 0 0.459 0.212 0.106 0.176 0.141 0.388 0.141 0.635s-0.035 0.459-0.141 0.635c-0.106 0.176-0.282 0.212-0.459 0.212h-0.141v-1.694z"></path>
  <path fill="#fff" d="M6.388 11.188h-0.635v2.753h1.659v-0.529h-1.024z"></path>
  <path fill="#fff"
        d="M4.235 11.118c-0.741 0-1.2 0.565-1.2 1.447v0c0 0.812 0.459 1.412 1.2 1.412v0c0.741 0 1.2-0.6 1.2-1.412-0.035-0.847-0.459-1.447-1.2-1.447zM4.235 13.447c-0.388 0-0.529-0.565-0.529-0.882s0.071-0.918 0.529-0.918c0.424 0 0.529 0.6 0.529 0.918s-0.141 0.882-0.529 0.882z"></path>
</svg>
