<!-- Generated by IcoMoon.io -->
<svg version="1.1" xmlns="http://www.w3.org/2000/svg" width="24" height="24" viewBox="0 0 24 24">
  <title>Gap-logo</title>
  <path fill="#000741"
        d="M16.574 7.821h-0.395v4.592h0.431c0.323 0 0.502-0.251 0.502-0.538v-3.516c0-0.251-0.179-0.538-0.538-0.538zM11.121 12.413h0.897l-0.466-3.516-0.431 3.516zM0 0v24h24v-24h-24zM8.861 12.556h-0.395v3.874h-0.179c0-0.179-0.108-0.251-0.215-0.215-0.179 0.072-0.395 0.287-0.861 0.287-0.574 0-1.184-0.215-1.184-1.363v-6.457c0-0.897 0.682-1.076 1.112-1.076 0.287 0 0.61 0.108 0.861 0.287 0.072 0.036 0.179 0.072 0.179-0.072v-0.108h0.215v2.762c0 0-0.215 0-0.287 0-0.144 0-0.215-0.036-0.215-0.179 0-0.43-0.072-1.435-0.144-1.83-0.108-0.395-0.287-0.646-0.574-0.646-0.359 0-0.395 0.466-0.395 0.682v7.462c0 0.287 0.215 0.502 0.466 0.502 0.287 0 0.502-0.215 0.502-0.502v-3.408h-0.466v-0.144h1.614v0.144zM13.632 16.43h-1.578v-0.144h0.108c0.251 0 0.251-0.108 0.251-0.287l-0.395-3.444h-0.933l-0.395 3.3c-0.036 0.215 0.108 0.395 0.466 0.395v0.144h-1.184v-0.144c0.466 0 0.502-0.179 0.538-0.466l0.969-8.108h0.682l1.004 8.215c0.036 0.179 0.108 0.395 0.431 0.395h0.036v0.144zM17.901 11.731c0 0.502-0.43 0.861-1.184 0.861h-0.538v3.3c0 0.251 0.108 0.395 0.431 0.395h0.179v0.144h-1.794v-0.144h0.072c0.251 0 0.323-0.072 0.323-0.251v-8.215h-0.431v-0.144h1.578c0.933 0 1.327 0.43 1.327 0.933v3.121z"></path>
</svg>
